<mxfile host="app.diagrams.net" agent="Mozilla/5.0 (Windows NT 10.0; Win64; x64) AppleWebKit/537.36 (KHTML, like Gecko) Chrome/127.0.0.0 Safari/537.36 Edg/127.0.0.0" version="24.7.7">
  <diagram name="Page-1" id="r4e8LX3_ftQumICTrRQC">
    <mxGraphModel dx="1042" dy="575" grid="0" gridSize="10" guides="1" tooltips="1" connect="1" arrows="1" fold="1" page="1" pageScale="1" pageWidth="827" pageHeight="1169" background="none" math="0" shadow="0">
      <root>
        <mxCell id="0" />
        <mxCell id="1" parent="0" />
        <mxCell id="eUau_iObbvA3vzcv_n36-35" value="Deployment" style="whiteSpace=wrap;strokeWidth=2;verticalAlign=top;fontFamily=Times New Roman;fontStyle=1;fontSize=14;fillColor=#FF428E;fontColor=#ffffff;strokeColor=#B20000;fillStyle=solid;" vertex="1" parent="1">
          <mxGeometry x="656" y="321" width="149" height="96" as="geometry" />
        </mxCell>
        <mxCell id="eUau_iObbvA3vzcv_n36-36" value="ModelÂ &#xa;Deployment" style="whiteSpace=wrap;strokeWidth=2;fontFamily=Times New Roman;" vertex="1" parent="1">
          <mxGeometry x="677" y="353.5" width="103" height="48.5" as="geometry" />
        </mxCell>
        <mxCell id="eUau_iObbvA3vzcv_n36-46" value="Feature&#xa;Engineering" style="whiteSpace=wrap;strokeWidth=2;verticalAlign=top;fontFamily=Times New Roman;fontStyle=1;fontSize=14;fillColor=#f8cecc;strokeColor=#b85450;gradientColor=#ea6b66;" vertex="1" parent="1">
          <mxGeometry x="197" y="291.25" width="117" height="148.75" as="geometry" />
        </mxCell>
        <mxCell id="eUau_iObbvA3vzcv_n36-47" value="Feature Selection" style="whiteSpace=wrap;strokeWidth=2;fontFamily=Times New Roman;" vertex="1" parent="1">
          <mxGeometry x="214" y="342" width="78" height="33" as="geometry" />
        </mxCell>
        <mxCell id="eUau_iObbvA3vzcv_n36-48" value="Feature Extraction" style="whiteSpace=wrap;strokeWidth=2;fontFamily=Times New Roman;" vertex="1" parent="1">
          <mxGeometry x="218" y="393" width="72" height="33" as="geometry" />
        </mxCell>
        <mxCell id="eUau_iObbvA3vzcv_n36-76" value="" style="edgeStyle=orthogonalEdgeStyle;rounded=0;orthogonalLoop=1;jettySize=auto;html=1;fontFamily=Times New Roman;fillColor=#0050ef;strokeColor=#001DBC;strokeWidth=3;" edge="1" parent="1" source="eUau_iObbvA3vzcv_n36-49">
          <mxGeometry relative="1" as="geometry">
            <mxPoint x="197" y="368" as="targetPoint" />
          </mxGeometry>
        </mxCell>
        <mxCell id="eUau_iObbvA3vzcv_n36-49" value="Data Collection" style="whiteSpace=wrap;strokeWidth=2;verticalAlign=top;fontStyle=1;fontFamily=Times New Roman;fillColor=#dae8fc;strokeColor=#6c8ebf;gradientColor=#7ea6e0;" vertex="1" parent="1">
          <mxGeometry x="29" y="308" width="143" height="122" as="geometry" />
        </mxCell>
        <mxCell id="eUau_iObbvA3vzcv_n36-50" value="Data Preprocessing" style="whiteSpace=wrap;strokeWidth=2;fontFamily=Times New Roman;" vertex="1" parent="1">
          <mxGeometry x="45" y="384.5" width="114" height="33" as="geometry" />
        </mxCell>
        <mxCell id="eUau_iObbvA3vzcv_n36-84" style="edgeStyle=orthogonalEdgeStyle;rounded=0;orthogonalLoop=1;jettySize=auto;html=1;strokeWidth=2;" edge="1" parent="1">
          <mxGeometry relative="1" as="geometry">
            <mxPoint x="100.5" y="367.94000000000005" as="sourcePoint" />
            <mxPoint x="102" y="384.5" as="targetPoint" />
          </mxGeometry>
        </mxCell>
        <mxCell id="eUau_iObbvA3vzcv_n36-51" value="Data Collection" style="whiteSpace=wrap;strokeWidth=2;fontFamily=Times New Roman;movable=1;resizable=1;rotatable=1;deletable=1;editable=1;locked=0;connectable=1;" vertex="1" parent="1">
          <mxGeometry x="38" y="335.19" width="125" height="32.75" as="geometry" />
        </mxCell>
        <mxCell id="eUau_iObbvA3vzcv_n36-42" value="Model Training" style="whiteSpace=wrap;strokeWidth=2;verticalAlign=top;fontFamily=Times New Roman;fontSize=14;fontStyle=1;fillColor=#b0e3e6;strokeColor=#0e8088;" vertex="1" parent="1">
          <mxGeometry x="339" y="268" width="136" height="184" as="geometry" />
        </mxCell>
        <mxCell id="eUau_iObbvA3vzcv_n36-43" value="Model Selection" style="whiteSpace=wrap;strokeWidth=2;fontFamily=Times New Roman;" vertex="1" parent="1">
          <mxGeometry x="369" y="300" width="76" height="33" as="geometry" />
        </mxCell>
        <mxCell id="eUau_iObbvA3vzcv_n36-44" value="Hyperparameter Tuning" style="whiteSpace=wrap;strokeWidth=2;fontFamily=Times New Roman;" vertex="1" parent="1">
          <mxGeometry x="352.5" y="350.25" width="109" height="33" as="geometry" />
        </mxCell>
        <mxCell id="eUau_iObbvA3vzcv_n36-45" value="Model Training" style="whiteSpace=wrap;strokeWidth=2;fontFamily=Times New Roman;" vertex="1" parent="1">
          <mxGeometry x="369" y="403" width="73" height="33" as="geometry" />
        </mxCell>
        <mxCell id="eUau_iObbvA3vzcv_n36-37" value="Model Evaluation" style="whiteSpace=wrap;strokeWidth=2;verticalAlign=top;fontFamily=Times New Roman;fontStyle=1;fontSize=14;fillColor=#fff2cc;strokeColor=#d6b656;gradientColor=#ffd966;" vertex="1" parent="1">
          <mxGeometry x="500" y="233.13" width="131" height="236.87" as="geometry" />
        </mxCell>
        <mxCell id="eUau_iObbvA3vzcv_n36-70" value="Validation" style="whiteSpace=wrap;strokeWidth=2;fontFamily=Times New Roman;" vertex="1" parent="1">
          <mxGeometry x="522" y="267" width="87" height="33" as="geometry" />
        </mxCell>
        <mxCell id="eUau_iObbvA3vzcv_n36-71" value="Performance Metrics" style="whiteSpace=wrap;strokeWidth=2;fontFamily=Times New Roman;" vertex="1" parent="1">
          <mxGeometry x="521" y="316" width="88" height="33" as="geometry" />
        </mxCell>
        <mxCell id="eUau_iObbvA3vzcv_n36-72" value="Model Evaluation" style="whiteSpace=wrap;strokeWidth=2;fontFamily=Times New Roman;" vertex="1" parent="1">
          <mxGeometry x="522" y="367.75" width="85" height="33" as="geometry" />
        </mxCell>
        <mxCell id="eUau_iObbvA3vzcv_n36-73" value="Final Model" style="whiteSpace=wrap;strokeWidth=2;fontFamily=Times New Roman;" vertex="1" parent="1">
          <mxGeometry x="523.5" y="419.25" width="85.5" height="33" as="geometry" />
        </mxCell>
        <mxCell id="eUau_iObbvA3vzcv_n36-77" value="" style="edgeStyle=orthogonalEdgeStyle;rounded=0;orthogonalLoop=1;jettySize=auto;html=1;fontFamily=Times New Roman;fillColor=#a20025;strokeColor=#6F0000;strokeWidth=3;" edge="1" parent="1">
          <mxGeometry relative="1" as="geometry">
            <mxPoint x="315" y="368" as="sourcePoint" />
            <mxPoint x="338" y="368" as="targetPoint" />
          </mxGeometry>
        </mxCell>
        <mxCell id="eUau_iObbvA3vzcv_n36-78" value="" style="edgeStyle=orthogonalEdgeStyle;rounded=0;orthogonalLoop=1;jettySize=auto;html=1;fontFamily=Times New Roman;fillColor=#60a917;strokeColor=#2D7600;strokeWidth=3;" edge="1" parent="1">
          <mxGeometry relative="1" as="geometry">
            <mxPoint x="475" y="367" as="sourcePoint" />
            <mxPoint x="498" y="367" as="targetPoint" />
          </mxGeometry>
        </mxCell>
        <mxCell id="eUau_iObbvA3vzcv_n36-83" value="" style="edgeStyle=orthogonalEdgeStyle;rounded=0;orthogonalLoop=1;jettySize=auto;html=1;fontFamily=Times New Roman;fillColor=#d80073;strokeColor=#A50040;strokeWidth=3;" edge="1" parent="1">
          <mxGeometry relative="1" as="geometry">
            <mxPoint x="630" y="367" as="sourcePoint" />
            <mxPoint x="653" y="367" as="targetPoint" />
          </mxGeometry>
        </mxCell>
        <mxCell id="eUau_iObbvA3vzcv_n36-85" style="edgeStyle=orthogonalEdgeStyle;rounded=0;orthogonalLoop=1;jettySize=auto;html=1;strokeWidth=2;" edge="1" parent="1">
          <mxGeometry relative="1" as="geometry">
            <mxPoint x="250.5" y="375.94000000000005" as="sourcePoint" />
            <mxPoint x="252" y="392.5" as="targetPoint" />
          </mxGeometry>
        </mxCell>
        <mxCell id="eUau_iObbvA3vzcv_n36-86" style="edgeStyle=orthogonalEdgeStyle;rounded=0;orthogonalLoop=1;jettySize=auto;html=1;strokeWidth=2;" edge="1" parent="1">
          <mxGeometry relative="1" as="geometry">
            <mxPoint x="403.5" y="332.94000000000005" as="sourcePoint" />
            <mxPoint x="405" y="349.5" as="targetPoint" />
          </mxGeometry>
        </mxCell>
        <mxCell id="eUau_iObbvA3vzcv_n36-89" style="edgeStyle=orthogonalEdgeStyle;rounded=0;orthogonalLoop=1;jettySize=auto;html=1;strokeWidth=2;" edge="1" parent="1">
          <mxGeometry relative="1" as="geometry">
            <mxPoint x="562.5" y="299.94000000000005" as="sourcePoint" />
            <mxPoint x="564" y="316.5" as="targetPoint" />
          </mxGeometry>
        </mxCell>
        <mxCell id="eUau_iObbvA3vzcv_n36-90" style="edgeStyle=orthogonalEdgeStyle;rounded=0;orthogonalLoop=1;jettySize=auto;html=1;strokeWidth=2;" edge="1" parent="1">
          <mxGeometry relative="1" as="geometry">
            <mxPoint x="403.5" y="384.94000000000005" as="sourcePoint" />
            <mxPoint x="405" y="401.5" as="targetPoint" />
          </mxGeometry>
        </mxCell>
        <mxCell id="eUau_iObbvA3vzcv_n36-91" style="edgeStyle=orthogonalEdgeStyle;rounded=0;orthogonalLoop=1;jettySize=auto;html=1;strokeWidth=2;" edge="1" parent="1">
          <mxGeometry relative="1" as="geometry">
            <mxPoint x="563.5" y="350.94000000000005" as="sourcePoint" />
            <mxPoint x="565" y="367.5" as="targetPoint" />
          </mxGeometry>
        </mxCell>
        <mxCell id="eUau_iObbvA3vzcv_n36-92" style="edgeStyle=orthogonalEdgeStyle;rounded=0;orthogonalLoop=1;jettySize=auto;html=1;strokeWidth=2;" edge="1" parent="1">
          <mxGeometry relative="1" as="geometry">
            <mxPoint x="563.5" y="401.94000000000005" as="sourcePoint" />
            <mxPoint x="565" y="418.5" as="targetPoint" />
          </mxGeometry>
        </mxCell>
      </root>
    </mxGraphModel>
  </diagram>
</mxfile>
